<svg width="24" height="24" viewBox="0 0 24 24" fill="none" xmlns="http://www.w3.org/2000/svg">
<g id="search_24px">
<path id="icon/action/search_24px" fill-rule="evenodd" clip-rule="evenodd" d="M14.9639 14.255H15.7539L20.7439 19.255L19.2539 20.745L14.2539 15.755V14.965L13.9839 14.685C12.8439 15.665 11.3639 16.255 9.75391 16.255C6.16391 16.255 3.25391 13.345 3.25391 9.755C3.25391 6.165 6.16391 3.255 9.75391 3.255C13.3439 3.255 16.2539 6.165 16.2539 9.755C16.2539 11.365 15.6639 12.845 14.6839 13.985L14.9639 14.255ZM5.25391 9.755C5.25391 12.245 7.26391 14.255 9.75391 14.255C12.2439 14.255 14.2539 12.245 14.2539 9.755C14.2539 7.26501 12.2439 5.255 9.75391 5.255C7.26391 5.255 5.25391 7.26501 5.25391 9.755Z" fill="white"/>
</g>
</svg>
