<svg width="20" height="20" viewBox="0 0 20 20" fill="none" xmlns="http://www.w3.org/2000/svg">
<path fill-rule="evenodd" clip-rule="evenodd" d="M6.66608 1.66669H16.6661C17.5827 1.66669 18.3327 2.41669 18.3327 3.33335V13.3334C18.3327 14.25 17.5827 15 16.6661 15H6.66608C5.74941 15 4.99941 14.25 4.99941 13.3334V3.33335C4.99941 2.41669 5.74941 1.66669 6.66608 1.66669ZM16.666 13.3334V3.33336H6.66602V13.3334H16.666ZM9.58274 9.72503L10.9911 11.6084L13.0577 9.02503L15.8327 12.5H7.49941L9.58274 9.72503ZM1.66602 16.6667V5.00002H3.33268V16.6667H14.9993V18.3334H3.33268C2.41602 18.3334 1.66602 17.5834 1.66602 16.6667Z" fill="white"/>
</svg>
