<svg width="94" height="14" viewBox="0 0 94 14" fill="none" xmlns="http://www.w3.org/2000/svg">
<path d="M15.6016 0L10.8784 10.6254H7.77568L3.05249 0H0L6.38133 14H12.2853L18.6667 0H15.6016Z" fill="#ED3632"/>
<path d="M13.2682 0L10.0147 7.46415H8.74597L5.4925 0H3.04297L7.76616 10.6254H10.8689L15.5921 0H13.2682Z" fill="#FF6B69"/>
<path d="M35.7304 14L40.4536 3.37456L43.5564 3.37456L48.2795 14L51.332 14L44.9507 8.97887e-06L39.0467 8.46273e-06L32.6654 14L35.7304 14Z" fill="#ED3632"/>
<path d="M38.0443 14L41.2978 6.53585L42.5665 6.53585L45.82 14L48.2695 14L43.5463 3.37456L40.4436 3.37456L35.7204 14L38.0443 14Z" fill="#FF6B69"/>
<path d="M20.2422 0.0843506H30.8923V2.40333H23.5918V5.58118H30.1193V7.98605H23.5918V11.5933H31.0641V13.9982H20.2422V0.0843506Z" fill="#ED3632"/>
<path d="M52.918 0.0843506H59.1878C61.0773 0.0843506 62.3657 0.342011 63.2245 0.771451C64.0834 1.20089 64.5129 1.97388 64.5129 3.00454V5.40941C64.5129 6.26829 64.2552 6.8695 63.654 7.29894C63.0528 7.72838 62.2798 8.07193 61.335 8.15782L65.3717 13.9123H61.5068L57.8136 8.50137H56.2676V13.9982H52.918V0.0843506ZM59.1878 6.26829C59.9608 6.26829 60.4761 6.1824 60.8197 5.92473C61.0773 5.75296 61.2491 5.32352 61.2491 4.7223V3.69165C61.2491 3.17632 61.0773 2.83277 60.8197 2.66099C60.4761 2.48922 59.9608 2.40333 59.2737 2.40333H56.4394V6.26829H59.1878Z" fill="#ED3632"/>
<path d="M70.4663 2.40487H66.1719V0H78.1103V2.40487H73.8159V13.9998H70.4663V2.40487Z" fill="#ED3632"/>
<path d="M80.3594 0H83.8673V5.61728H90.0736V0H93.5816V14H90.0736V7.95061H83.8673V14H80.3594V0Z" fill="#ED3632"/>
</svg>
