<svg width="94" height="14" viewBox="0 0 94 14" fill="none" xmlns="http://www.w3.org/2000/svg">
<path d="M15.6016 0L10.8784 10.6254H7.77568L3.05249 0H0L6.38133 14H12.2853L18.6667 0H15.6016Z" fill="#ED3632"/>
<path d="M13.2691 0L10.0157 7.46415H8.74695L5.49347 0H3.04395L7.76714 10.6254H10.8699L15.5931 0H13.2691Z" fill="#FF6B69"/>
<path d="M35.7324 14L40.4556 3.37456L43.5583 3.37456L48.2815 14L51.334 14L44.9527 8.97887e-06L39.0487 8.46273e-06L32.6673 14L35.7324 14Z" fill="#ED3632"/>
<path d="M38.0463 14L41.2998 6.53585L42.5685 6.53585L45.822 14L48.2715 14L43.5483 3.37456L40.4456 3.37456L35.7224 14L38.0463 14Z" fill="#FF6B69"/>
<path d="M20.2432 0.0842285H30.8933V2.4032H23.5928V5.58106H30.1203V7.98593H23.5928V11.5932H31.0651V13.9981H20.2432V0.0842285Z" fill="#ED3632"/>
<path d="M52.9199 0.0842285H59.1897C61.0793 0.0842285 62.3676 0.341889 63.2265 0.771329C64.0854 1.20077 64.5148 1.97376 64.5148 3.00442V5.40928C64.5148 6.26816 64.2571 6.86938 63.6559 7.29882C63.0547 7.72826 62.2817 8.07181 61.3369 8.1577L65.3737 13.9122H61.5087L57.8155 8.50125H56.2695V13.9981H52.9199V0.0842285ZM59.1897 6.26816C59.9627 6.26816 60.4781 6.18228 60.8216 5.92461C61.0793 5.75284 61.2511 5.32339 61.2511 4.72218V3.69152C61.2511 3.1762 61.0793 2.83265 60.8216 2.66087C60.4781 2.48909 59.9627 2.4032 59.2756 2.4032H56.4413V6.26816H59.1897Z" fill="#ED3632"/>
<path d="M70.4682 2.40487H66.1738V0H78.1123V2.40487H73.8179V13.9998H70.4682V2.40487Z" fill="#ED3632"/>
<path d="M80.3574 0H83.8654V5.61728H90.0717V0H93.5796V14H90.0717V7.95061H83.8654V14H80.3574V0Z" fill="#ED3632"/>
</svg>
