<svg width="199" height="30" viewBox="0 0 199 30" fill="none" xmlns="http://www.w3.org/2000/svg">
<path d="M33.432 0L23.3109 22.7688H16.6622L6.54105 0H0L13.6743 30H26.3257L40 0H33.432Z" fill="#ED3632"/>
<path d="M28.4522 0L21.4804 15.9946H18.7617L11.79 0H6.54102L16.6621 22.7688H23.3109L33.432 0H28.4522Z" fill="#FF6B69"/>
<g clip-path="url(#clip0)">
<path d="M75.568 30L85.6891 7.23118L92.3378 7.23118L102.459 30L109 30L95.3257 -1.19544e-06L82.6743 -2.30147e-06L69 30L75.568 30Z" fill="#ED3632"/>
<path d="M80.5478 30L87.5196 14.0054L90.2383 14.0054L97.21 30L102.459 30L92.3379 7.23119L85.6891 7.23119L75.568 30L80.5478 30Z" fill="#FF6B69"/>
</g>
<path d="M43 0.183594H65.8217V5.15283H50.1778V11.9625H64.1653V17.1158H50.1778V24.8457H66.1898V29.999H43V0.183594Z" fill="#ED3632"/>
<path d="M112 0.183594H125.435C129.484 0.183594 132.245 0.735723 134.086 1.65595C135.926 2.57618 136.846 4.23259 136.846 6.44114V11.5944C136.846 13.4349 136.294 14.7232 135.006 15.6434C133.717 16.5637 132.061 17.2999 130.036 17.4839L138.687 29.815H130.405L122.491 18.2201H119.178V29.999H112V0.183594ZM125.435 13.4349C127.092 13.4349 128.196 13.2508 128.932 12.6987C129.484 12.3306 129.852 11.4104 129.852 10.1221V7.91352C129.852 6.80924 129.484 6.07306 128.932 5.70497C128.196 5.33688 127.092 5.15283 125.619 5.15283H119.546V13.4349H125.435Z" fill="#ED3632"/>
<path d="M149.558 5.15329H140.355V0H165.938V5.15329H156.736V29.9995H149.558V5.15329Z" fill="#ED3632"/>
<path d="M170.355 0H177.872V12.037H191.172V0H198.689V30H191.172V17.037H177.872V30H170.355V0Z" fill="#ED3632"/>
<defs>
<clipPath id="clip0">
<rect x="109" y="30" width="40" height="30" transform="rotate(-180 109 30)" fill="white"/>
</clipPath>
</defs>
</svg>
