<svg width="18" height="18" viewBox="0 0 18 18" fill="none" xmlns="http://www.w3.org/2000/svg">
<path fill-rule="evenodd" clip-rule="evenodd" d="M11.9639 11.255H12.7539L17.7439 16.255L16.2539 17.745L11.2539 12.755V11.965L10.9839 11.685C9.84391 12.665 8.36391 13.255 6.75391 13.255C3.16391 13.255 0.253906 10.345 0.253906 6.755C0.253906 3.165 3.16391 0.255005 6.75391 0.255005C10.3439 0.255005 13.2539 3.165 13.2539 6.755C13.2539 8.365 12.6639 9.845 11.6839 10.985L11.9639 11.255ZM2.25391 6.755C2.25391 9.245 4.26391 11.255 6.75391 11.255C9.24391 11.255 11.2539 9.245 11.2539 6.755C11.2539 4.26501 9.24391 2.255 6.75391 2.255C4.26391 2.255 2.25391 4.26501 2.25391 6.755Z" fill="#BDBDBD"/>
</svg>
